<svg width="24" height="24" viewBox="0 0 24 24" fill="none" xmlns="http://www.w3.org/2000/svg">
<path d="M13.4071 12.0062L23.6948 1.71842C24.0919 1.33495 24.1029 0.702219 23.7194 0.305154C23.336 -0.0919106 22.7032 -0.102921 22.3062 0.280557C22.2979 0.288581 22.2897 0.29678 22.2816 0.305154L11.9937 10.5929L1.70593 0.305096C1.30887 -0.0783823 0.676138 -0.0673722 0.29266 0.329693C-0.0814481 0.717036 -0.0814481 1.33108 0.29266 1.71842L10.5805 12.0062L0.29266 22.294C-0.0975533 22.6843 -0.0975533 23.317 0.29266 23.7073C0.682931 24.0974 1.31566 24.0974 1.70593 23.7073L11.9937 13.4195L22.2815 23.7073C22.6786 24.0908 23.3113 24.0797 23.6948 23.6827C24.0688 23.2953 24.0688 22.6813 23.6948 22.294L13.4071 12.0062Z" fill="#A4A4A4"/>
</svg>
