<svg xmlns="http://www.w3.org/2000/svg" version="1.1" xmlns:xlink="http://www.w3.org/1999/xlink" xmlns:svgjs="http://svgjs.com/svgjs" width="91" height="47"><svg width="91" height="47" viewBox="0 0 91 47" fill="none" xmlns="http://www.w3.org/2000/svg">
<path fill-rule="evenodd" clip-rule="evenodd" d="M17.6641 22.7817H58.8123L80.1045 5.06271L64.1283 5.06222C62.7306 5.06218 61.5975 3.92906 61.5975 2.53129C61.5975 1.1335 62.7306 0.000370093 64.1284 0.000370093H75.3091L86.755 4.34453e-10C87.3073 -1.61042e-05 87.755 0.447704 87.755 1V26.1574L85.1672 28.5201L82.6923 26.1574V9.28109L61.161 28.3811H30.8168L17.6641 22.7817ZM33.4416 28.3513C34.9795 28.3513 36.2261 27.1047 36.2261 25.5668C36.2261 24.029 34.9795 22.7823 33.4416 22.7823C31.9038 22.7823 30.6571 24.029 30.6571 25.5668C30.6571 27.1047 31.9038 28.3513 33.4416 28.3513ZM61.5417 25.5667C61.5417 27.1045 60.295 28.3512 58.7572 28.3512C57.2193 28.3512 55.9727 27.1045 55.9727 25.5667C55.9727 24.0289 57.2193 22.7822 58.7572 22.7822C60.295 22.7822 61.5417 24.0289 61.5417 25.5667ZM0 29.6399H6.33681V46.409H11.3085V29.6399L30.3237 28.6888L16.8231 22.7823L0 25.5444V29.6399ZM18.473 46.409H23.4549V37.9124C23.4651 36.0582 24.7589 34.8255 26.3278 34.8255C26.9289 34.8255 27.4077 35.0089 27.8458 35.2126L29.3129 31.1171C28.7118 30.7708 27.9477 30.5466 27.1225 30.5466C25.4109 30.5466 24.0458 31.545 23.4752 33.6132H23.3122V30.7606H18.473V46.409ZM35.9222 46.409H30.9404V30.7606H35.9222V46.409ZM54.273 30.7606H49.0263L46.1329 41.5393H45.9699L43.0868 30.7606H37.84L43.1988 46.409H48.904L54.273 30.7606ZM61.165 46.409H56.1832V30.7606H61.165V46.409ZM70.0513 46.6332C72.4149 46.6332 73.8208 45.3189 74.4525 43.8723H74.6053V46.409H79.5362V30.7606H74.5543V33.44H74.4525C73.8616 32.0035 72.4964 30.5568 70.031 30.5568C66.7607 30.5568 63.796 33.0732 63.796 38.595C63.796 43.9232 66.5977 46.6332 70.0513 46.6332ZM71.7833 42.7516C69.9393 42.7516 68.9103 41.1114 68.9103 38.5848C68.9103 36.0684 69.9291 34.4486 71.7833 34.4486C73.6069 34.4486 74.6664 36.0277 74.6664 38.5848C74.6664 41.1216 73.5967 42.7516 71.7833 42.7516ZM82.6868 42.069V26.5447L85.17 28.9242L87.7689 26.5511V41.5189C87.7791 42.3339 88.015 42.7109 88.7791 42.7109C89.1764 42.7007 89.3801 42.6701 89.533 42.609L90.2869 46.1238C89.8386 46.2664 89.2681 46.4396 88.0659 46.5007C84.3881 46.6637 82.6969 45.3087 82.6868 42.069ZM34.6645 26.4289V27H32.4884V26.4289H32.6972C32.8065 26.392 32.8279 26.2841 32.825 26.1406L32.8136 25.8324H32.4813V25.2954H32.7952L32.781 24.8949C32.7597 24.3608 33.1489 24.0511 33.7085 24.0511C34.3179 24.0511 34.6531 24.3735 34.6617 24.8835L34.004 24.892C34.0011 24.669 33.8733 24.6051 33.7156 24.6051C33.5679 24.6051 33.4756 24.7017 33.4784 24.8949L33.494 25.2954H34.119V25.8324H33.5139L33.5239 26.0951C33.5281 26.2343 33.4969 26.3409 33.4216 26.4289H34.6645ZM59.8629 27V26.4289H58.62C58.6953 26.3409 58.7266 26.2343 58.7223 26.0951L58.7124 25.8324H59.3175V25.2954H58.6925L58.6768 24.8949C58.674 24.7017 58.7663 24.6051 58.9141 24.6051C59.0717 24.6051 59.1996 24.669 59.2024 24.892L59.8601 24.8835C59.8516 24.3735 59.5163 24.0511 58.907 24.0511C58.3473 24.0511 57.9581 24.3608 57.9794 24.8949L57.9936 25.2954H57.6797V25.8324H58.0121L58.0234 26.1406C58.0263 26.2841 58.005 26.392 57.8956 26.4289H57.6868V27H59.8629Z" fill="#7000FF"></path>
</svg><style>@media (prefers-color-scheme: light) { :root { filter: none; } }
</style></svg>